<svg xmlns="http://www.w3.org/2000/svg" viewBox="0 0 131.91 202.32"><defs><style>.cls-1{fill:none;stroke:#000;stroke-linecap:round;stroke-miterlimit:10;}.cls-2{fill:#f7a42d;}.cls-3{fill:#fff;}.cls-4{fill:#1d1d1b;}</style></defs><title>FreshairLogoColour</title><g id="Layer_2" data-name="Layer 2"><g id="Layer_1-2" data-name="Layer 1"><polygon points="55.93 114.27 44.61 114.27 7.45 178.63 18.78 178.63 55.93 114.27"/><line class="cls-1" x1="116.73" y1="0.5" x2="0.5" y2="201.82"/><polygon points="47.27 201.82 35.94 201.82 58.94 162.7 70.26 162.7 47.27 201.82"/><polygon points="62.54 123.86 28.57 123.86 25.51 114.27 34.1 114.27 80.87 33.27 106.24 33.27 111.78 23.69 114.84 33.27 62.54 123.86"/><polygon class="cls-2" points="59.48 114.27 25.51 114.27 77.81 23.69 111.78 23.69 59.48 114.27"/><polygon class="cls-3" points="84.78 70.44 50.63 70.44 51.94 68.17 86.09 68.17 84.78 70.44"/><polygon points="77.72 171.29 43.75 171.29 40.69 161.7 49.28 161.7 96.05 80.7 121.42 80.7 126.96 71.11 130.02 80.7 77.72 171.29"/><polygon class="cls-2" points="74.66 161.7 40.69 161.7 92.99 71.11 126.96 71.11 74.66 161.7"/><polygon points="102.7 201.82 68.73 201.82 65.67 192.23 74.26 192.23 97.94 152.6 123.31 152.6 128.85 143.01 131.91 152.6 102.7 201.82"/><polygon class="cls-2" points="100.44 192.22 65.67 192.22 94.07 143.01 128.85 143.01 100.44 192.22"/><polygon class="cls-3" points="102.39 113.72 68.24 113.72 69.55 111.46 103.7 111.46 102.39 113.72"/><polygon class="cls-4" points="22.95 97.83 11.63 97.83 42.88 43.7 54.2 43.7 22.95 97.83"/><path class="cls-3" d="M100.65,149.85a7,7,0,0,1-5.35,3.4c-1.88,0-2.52-1.52-1.44-3.4a7,7,0,0,1,5.36-3.4c1.87,0,2.52,1.52,1.43,3.4"/></g></g></svg>